<svg width="34" height="34" viewBox="0 0 34 34" fill="none" xmlns="http://www.w3.org/2000/svg">
<rect width="34" height="34" rx="4" fill="#FFEFF7"/>
<path d="M13.5066 23.3815L13.4446 22.7994L12.8794 22.9516C12.7617 22.9833 12.6337 23 12.5 23C11.673 23 11 22.327 11 21.5C11 21.3269 11.0305 21.1574 11.0847 21.002L11.245 20.5418L10.7891 20.3697C10.0345 20.0849 9.5 19.355 9.5 18.5C9.5 17.7032 9.96668 17.013 10.6448 16.6927L11.2164 16.4228L10.822 15.9287C10.6196 15.6751 10.5 15.3535 10.5 15C10.5 14.2815 11.0056 13.6801 11.6818 13.5322L12.2046 13.4179L12.0551 12.9041C12.0192 12.7808 12 12.6437 12 12.5C12 11.8001 12.4829 11.2081 13.1319 11.0441L13.4694 10.9588L13.5065 10.6126C13.5733 9.98946 14.1047 9.5 14.75 9.5C15.4395 9.5 16 10.0605 16 10.75V23.25C16 23.9395 15.4395 24.5 14.75 24.5C14.1057 24.5 13.5736 24.0117 13.5066 23.3815ZM20.4937 10.6144L20.5319 10.9595L20.8685 11.0442C21.52 11.2083 22 11.7966 22 12.5C22 12.6437 21.9808 12.7808 21.9449 12.9041L21.7949 13.4196L22.3198 13.5326C22.9934 13.6776 23.5 14.2802 23.5 15C23.5 15.3535 23.3804 15.6751 23.178 15.9287L22.7836 16.4228L23.3552 16.6927C24.0333 17.013 24.5 17.7032 24.5 18.5C24.5 19.355 23.9655 20.0849 23.2109 20.3697L22.755 20.5418L22.9153 21.002C22.9695 21.1574 23 21.3269 23 21.5C23 22.327 22.327 23 21.5 23C21.3663 23 21.2383 22.9833 21.1206 22.9516L20.5554 22.7994L20.4934 23.3815C20.4264 24.0117 19.8943 24.5 19.25 24.5C18.5605 24.5 18 23.9395 18 23.25V10.75C18 10.0605 18.5605 9.5 19.25 9.5C19.8939 9.5 20.4243 9.98832 20.4937 10.6144Z" stroke="#9B254A"/>
</svg>
